<?xml version="1.0" encoding="UTF-8" standalone="no"?>
<!-- Created with Inkscape (http://www.inkscape.org/) -->

<svg
   xmlns:dc="http://purl.org/dc/elements/1.1/"
   xmlns:cc="http://creativecommons.org/ns#"
   xmlns:rdf="http://www.w3.org/1999/02/22-rdf-syntax-ns#"
   xmlns:svg="http://www.w3.org/2000/svg"
   xmlns="http://www.w3.org/2000/svg"
   xmlns:sodipodi="http://sodipodi.sourceforge.net/DTD/sodipodi-0.dtd"
   xmlns:inkscape="http://www.inkscape.org/namespaces/inkscape"
   width="180"
   height="60"
   id="svg2"
   version="1.1"
   inkscape:version="0.48.3.1 r9886"
   sodipodi:docname="qDukeLogo.svg">
  <defs
     id="defs4" />
  <sodipodi:namedview
     id="base"
     pagecolor="#ffffff"
     bordercolor="#666666"
     borderopacity="1.0"
     inkscape:pageopacity="0.0"
     inkscape:pageshadow="2"
     inkscape:zoom="2.8"
     inkscape:cx="59.528676"
     inkscape:cy="73.181915"
     inkscape:document-units="px"
     inkscape:current-layer="layer1"
     showgrid="false"
     inkscape:window-width="1535"
     inkscape:window-height="876"
     inkscape:window-x="65"
     inkscape:window-y="24"
     inkscape:window-maximized="1" />
  <metadata
     id="metadata7">
    <rdf:RDF>
      <cc:Work
         rdf:about="">
        <dc:format>image/svg+xml</dc:format>
        <dc:type
           rdf:resource="http://purl.org/dc/dcmitype/StillImage" />
        <dc:title></dc:title>
      </cc:Work>
    </rdf:RDF>
  </metadata>
  <g
     inkscape:label="Layer 1"
     inkscape:groupmode="layer"
     id="layer1"
     transform="translate(0,-992.36218)">
    <g
       style="font-size:40px;font-style:normal;font-weight:normal;line-height:125%;letter-spacing:0px;word-spacing:0px;fill:#ffffff;fill-opacity:1;stroke:none;font-family:Sans"
       id="text2985"
       transform="matrix(0.9473941,0,0,0.9473941,16.276408,53.130951)">
      <path
         d="m 26.625687,1042.537 c 1.27985,10e-5 3.853959,0.4105 3.839551,2e-4 0.178575,-0.8349 0.08929,-1.8035 -0.3125,-3.04 3.664522,3.1896 6.858706,4.1102 12.3125,4.96 -5.53542,0.9021 -8.595676,1.8335 -12.3125,4.96 0.446429,-1.1026 0.446433,-2.0713 0.3125,-3.04 0.01182,-0.4103 -2.628,0 -3.942,0 -2.227994,-0.075 -3.697058,-1.7565 -3.737551,-3.8402 l 0,-12 -0.192,0 c -0.640018,0.96 -1.456017,1.696 -2.448,2.208 -0.960015,0.512 -2.240014,0.768 -3.84,0.768 -3.200009,0 -5.568006,-1.008 -7.1040003,-3.024 -1.5360031,-2.048 -2.3040023,-5.2 -2.304,-9.456 -2.3e-6,-4.128 0.9919967,-7.248 2.976,-9.36 1.9839923,-2.112 4.8799903,-3.168 8.6880003,-3.168 1.695984,0 3.279982,0.16 4.752,0.48 1.503979,0.32 2.607978,0.656 3.312,1.008 l -4.49e-4,32.5442 m -9.647551,-12.3842 c 1.631986,0 2.911984,-0.416 3.84,-1.248 0.927983,-0.832 1.583982,-2.112 1.968,-3.84 l 0,-12.288 c -1.184017,-0.608 -2.816016,-0.912 -4.896,-0.912 -2.208011,0 -3.93601,0.752 -5.184,2.256 -1.216007,1.472 -1.824007,3.76 -1.824,6.864 -7e-6,1.344 0.111993,2.592 0.336,3.744 0.223993,1.12 0.575992,2.08 1.056,2.88 0.479992,0.8 1.103991,1.424 1.872,1.872 0.767989,0.448 1.711988,0.672 2.832,0.672"
         style="font-size:48px;font-variant:normal;font-stretch:normal;font-family:PT Sans;-inkscape-font-specification:PT Sans;fill:#ffffff"
         id="path3013"
         inkscape:connector-curvature="0"
         sodipodi:nodetypes="cccccccccccscssscccccccscsccsc" />
    </g>
    <g
       style="font-size:56px;font-style:normal;font-weight:normal;line-height:125%;letter-spacing:0px;word-spacing:0px;fill:#ffffff;fill-opacity:1;stroke:none;font-family:Sans"
       id="text2989"
       transform="matrix(0.9473941,0,0,0.9473941,16.276408,53.130951)">
      <path
         d="m 43.47604,1002.0536 c 0,-0.784 0.112005,-1.792 4.704,-1.792 6.943993,0 17.248,5.096 17.248,16.576 0,11.368 -10.416004,15.008 -14.784,15.008 -3.639996,0 -7.168,-1.736 -7.168,-5.656 l 0,-24.136 m 9.856,31.136 c 9.63199,0 17.36,-6.888 17.36,-15.288 0,-13.496 -9.520012,-19.32002 -21.28,-19.32002 -1.791998,0 -3.360001,0.056 -4.816,0.168 -1.399998,0.056 -2.744001,0.168 -4.144,0.168 l -5.096,0 c -0.671999,0 -2.184,0 -2.184,0.952 0,0.61602 0.392001,0.61602 1.68,0.72802 1.455999,0.112 3.808,0 3.808,1.064 l 0,26.32 c 0,3.248 -1.288001,3.416 -2.52,3.64 -1.679998,0.28 -2.072,0.784 -2.072,1.232 0,0.56 0.728,0.56 1.008,0.56 0.671999,0 1.512001,-0.056 2.408,-0.112 0.895999,-0.056 1.848001,-0.112 2.632,-0.112 l 13.216,0"
         style="font-variant:normal;font-stretch:normal;font-family:Garamond 3 LT Std;-inkscape-font-specification:Garamond 3 LT Std;fill:#ffffff"
         id="path3016"
         inkscape:connector-curvature="0" />
      <path
         d="m 83.55279,1034.1976 c 4.535996,0 6.944001,-3.304 7.84,-3.304 0.28,0 0.392,0.224 0.392,0.672 l 0,1.288 c 0,0.504 10e-7,0.896 0.448,0.896 0.504,0 2.800004,-0.504 6.72,-1.12 0.839999,-0.112 1.12,-0.224 1.12,-0.672 0,-0.56 -0.728002,-0.56 -2.912,-0.56 -0.503999,0 -1.456,-0.168 -1.456,-1.344 0,-5.656 0.224,-11.312 0.224,-16.968 0,-1.008 -0.784,-1.176 -1.176,-1.176 -1.119999,0 -2.184001,0.112 -3.304,0.112 -0.951999,0 -1.904001,-0.112 -2.856,-0.112 -0.615999,0 -1.232,0.112 -1.232,0.448 0,0.448 1.176001,0.784 1.624,0.896 2.631997,0.672 2.912,0.672 2.912,1.344 0,3.976 -0.112,8.008 -0.112,11.984 -0.056,2.296 -0.504006,4.928 -6.72,4.928 -2.743997,0 -4.424,-1.288 -4.424,-3.584 0,-4.984 0.112,-9.968 0.112,-14.952 0,-0.784 -0.112001,-1.064 -0.84,-1.064 -0.839999,0 -1.680001,0.112 -2.464,0.112 -0.839999,0 -1.624001,-0.112 -2.408,-0.112 -0.783999,0 -1.4,0 -1.4,0.504 0,0.392 0.336001,0.504 1.68,0.84 0.671999,0.168 1.624,0.28 1.624,1.064 0,3.304 -0.112,8.512 -0.112,11.928 0,4.76 1.456005,7.952 6.72,7.952"
         style="font-variant:normal;font-stretch:normal;font-family:Garamond 3 LT Std;-inkscape-font-specification:Garamond 3 LT Std;fill:#ffffff"
         id="path3018"
         inkscape:connector-curvature="0" />
      <path
         d="m 105.33679,1029.4376 c 0,2.352 -1.176,2.184 -2.744,2.632 -0.56,0.168 -1.008,0.28 -1.008,0.784 0,0.504 1.008,0.56 1.344,0.56 0.952,0 2.688,-0.224 4.032,-0.224 1.232,0 2.408,0.224 3.752,0.224 0.56,0 1.288,-0.112 1.288,-0.56 0,-0.504 -0.728,-0.504 -1.624,-0.784 -0.504,-0.168 -1.232,-0.56 -1.232,-1.792 l 0,-7.952 c 0,-0.224 0.168,-0.28 0.392,-0.28 0.112,0 0.336,0.168 0.504,0.336 l 8.456,8.008 c 0.336,0.336 0.616,0.616 0.616,0.896 0,0.392 -0.504,0.728 -1.064,0.784 -0.952,0.112 -1.624,0.28 -1.624,0.784 0,0.504 0.504,0.56 1.68,0.56 1.344,0 2.688,-0.224 4.144,-0.224 1.68,0 3.136,0.224 4.312,0.224 0.896,0 1.456,-0.28 1.456,-0.56 0,-0.784 -2.128,-0.616 -4.424,-2.688 l -9.688,-8.792 c -0.168,-0.168 -0.448,-0.392 -0.448,-0.784 0,-0.616 9.184,-5.936 10.808,-6.664 0.784,-0.336 2.744,-0.728 2.744,-1.344 0,-0.56 -0.56,-0.672 -1.064,-0.672 -1.12,0 -2.8,0.112 -4.2,0.112 -1.456,0 -3.136,-0.112 -4.312,-0.112 -0.336,0 -0.784,0.28 -0.784,0.56 0,0.84 2.128,0.84 2.128,2.296 0,1.008 -8.568,6.048 -9.128,6.048 -0.392,0 -0.504,-0.28 -0.504,-0.896 l 0,-23.01602 c 0,-0.84 -0.336,-1.008 -0.616,-1.008 -0.336,0 -0.672,0 -0.952,0.112 l -3.808,1.456 c -0.784,0.27999 -1.176,0.392 -1.176,0.784 0,1.06399 2.744,0.112 2.744,3.08002 l 0,28.112"
         style="font-variant:normal;font-stretch:normal;font-family:Garamond 3 LT Std;-inkscape-font-specification:Garamond 3 LT Std;fill:#ffffff"
         id="path3020"
         inkscape:connector-curvature="0" />
      <path
         d="m 147.61679,1020.1976 c 0.952,0 1.12,-0.28 1.12,-1.288 0,-2.408 -2.18401,-7.896 -8.624,-7.896 -6.94399,0 -10.192,6.552 -10.192,11.816 0,7 3.52801,11.368 9.688,11.368 5.82399,0 8.176,-4.088 8.176,-4.48 0,-0.28 -0.224,-0.448 -0.504,-0.448 -0.896,0 -1.008,2.24 -5.32,2.24 -6.83199,0 -8.12,-4.648 -8.12,-9.352 0,-0.896 0,-1.624 0.112,-1.96 l 13.664,0 m -8.288,-1.68 c -4.76,0 -4.872,-0.112 -4.872,-0.504 0,-1.736 2.408,-5.656 6.44,-5.656 2.352,0 4.144,1.512 4.144,3.416 0,2.016 -0.784,2.744 -5.712,2.744"
         style="font-variant:normal;font-stretch:normal;font-family:Garamond 3 LT Std;-inkscape-font-specification:Garamond 3 LT Std;fill:#ffffff"
         id="path3022"
         inkscape:connector-curvature="0" />
    </g>
    <g
       style="font-size:13px;font-style:normal;font-weight:normal;line-height:125%;letter-spacing:1.63999998999999996px;word-spacing:0px;fill:#ffffff;fill-opacity:1;stroke:none;font-family:Sans"
       id="text3024"
       transform="matrix(0.9473941,0,0,0.9473941,4.3773879,53.782281)">
      <path
         d="m 60.416143,1037.7533 1.547,0 0,3.016 0.039,0 c 0.311998,-0.3814 0.758331,-0.572 1.339,-0.572 0.61533,0 1.091996,0.2556 1.43,0.767 0.346662,0.5113 0.519995,1.3346 0.52,2.47 -5e-6,1.2306 -0.242671,2.1363 -0.728,2.717 -0.485337,0.572 -1.148336,0.858 -1.989,0.858 -0.459335,0 -0.884001,-0.043 -1.274,-0.13 -0.381334,-0.087 -0.676,-0.182 -0.884,-0.286 l 0,-8.84 m 1.547,7.696 c 0.181998,0.095 0.420331,0.143 0.715,0.143 0.329331,0 0.580664,-0.156 0.754,-0.468 0.17333,-0.3207 0.259997,-0.8537 0.26,-1.599 -3e-6,-0.6587 -0.06934,-1.1397 -0.208,-1.443 -0.13867,-0.312 -0.355336,-0.468 -0.65,-0.468 -0.433335,0 -0.723669,0.2253 -0.871,0.676 l 0,3.159"
         style="font-variant:normal;font-weight:bold;font-stretch:condensed;font-family:PT Sans Narrow;-inkscape-font-specification:PT Sans Narrow Bold Condensed;fill:#ffffff"
         id="path3029"
         inkscape:connector-curvature="0" />
      <path
         d="m 69.772862,1044.0063 0.169,1.014 0.065,0 0.117,-1.027 0.754,-3.64 1.586,0 -1.625,5.863 c -0.147337,0.5113 -0.286003,0.9706 -0.416,1.378 -0.130003,0.4073 -0.26867,0.754 -0.416,1.04 -0.147336,0.286 -0.316336,0.5026 -0.507,0.65 -0.182002,0.156 -0.403002,0.234 -0.663,0.234 -0.182002,0 -0.359668,-0.017 -0.533,-0.052 -0.164668,-0.026 -0.307668,-0.074 -0.429,-0.143 l 0.26,-1.326 c 0.112666,0.043 0.225332,0.061 0.338,0.052 0.121332,0 0.229665,-0.043 0.325,-0.13 0.103998,-0.078 0.194998,-0.2037 0.273,-0.377 0.078,-0.1734 0.142998,-0.403 0.195,-0.689 l -2.262,-6.5 1.859,0 0.91,3.653"
         style="font-variant:normal;font-weight:bold;font-stretch:condensed;font-family:PT Sans Narrow;-inkscape-font-specification:PT Sans Narrow Bold Condensed;fill:#ffffff"
         id="path3031"
         inkscape:connector-curvature="0" />
      <path
         d="m 83.568237,1039.2613 -2.145,0 0,7.592 -1.638,0 0,-7.592 -2.158,0 0,-1.508 5.941,0 0,1.508"
         style="font-variant:normal;font-weight:bold;font-stretch:condensed;font-family:PT Sans Narrow;-inkscape-font-specification:PT Sans Narrow Bold Condensed;fill:#ffffff"
         id="path3033"
         inkscape:connector-curvature="0" />
      <path
         d="m 89.090768,1046.8533 0,-3.926 c -4e-6,-0.468 -0.05634,-0.806 -0.169,-1.014 -0.104004,-0.208 -0.299003,-0.312 -0.585,-0.312 -0.208003,0 -0.398669,0.074 -0.572,0.221 -0.173336,0.1473 -0.290336,0.3336 -0.351,0.559 l 0,4.472 -1.547,0 0,-9.1 1.547,0 0,3.185 0.039,0 c 0.173331,-0.2254 0.381331,-0.4074 0.624,-0.546 0.25133,-0.1387 0.56333,-0.208 0.936,-0.208 0.268663,0 0.502662,0.039 0.702,0.117 0.199329,0.078 0.368328,0.208 0.507,0.39 0.138661,0.182 0.242661,0.429 0.312,0.741 0.06933,0.3033 0.103995,0.689 0.104,1.157 l 0,4.264 -1.547,0"
         style="font-variant:normal;font-weight:bold;font-stretch:condensed;font-family:PT Sans Narrow;-inkscape-font-specification:PT Sans Narrow Bold Condensed;fill:#ffffff"
         id="path3035"
         inkscape:connector-curvature="0" />
      <path
         d="m 97.740613,1046.3723 c -0.216671,0.1906 -0.511338,0.3466 -0.884,0.468 -0.37267,0.1213 -0.76267,0.182 -1.17,0.182 -0.450669,0 -0.840669,-0.078 -1.17,-0.234 -0.320668,-0.156 -0.585001,-0.3814 -0.793,-0.676 -0.208001,-0.2947 -0.364001,-0.65 -0.468,-1.066 -0.09533,-0.4247 -0.143,-0.9057 -0.143,-1.443 0,-1.17 0.229666,-2.0324 0.689,-2.587 0.467998,-0.5634 1.113664,-0.845 1.937,-0.845 0.27733,0 0.545996,0.043 0.806,0.13 0.259996,0.078 0.489662,0.2166 0.689,0.416 0.207995,0.1906 0.372662,0.4506 0.494,0.78 0.129995,0.3206 0.194995,0.728 0.195,1.222 -5e-6,0.1906 -0.013,0.3943 -0.039,0.611 -0.01734,0.2166 -0.04767,0.4506 -0.091,0.702 l -3.159,0 c 0.01733,0.5373 0.129998,0.949 0.338,1.235 0.207998,0.286 0.541664,0.429 1.001,0.429 0.27733,0 0.528663,-0.043 0.754,-0.13 0.233996,-0.087 0.411662,-0.1777 0.533,-0.273 l 0.481,1.079 m -2.028,-4.875 c -0.329336,0 -0.576336,0.1343 -0.741,0.403 -0.164669,0.26 -0.260002,0.6283 -0.286,1.105 l 1.794,0 c 0.026,-0.494 -0.026,-0.8667 -0.156,-1.118 -0.130003,-0.26 -0.33367,-0.39 -0.611,-0.39"
         style="font-variant:normal;font-weight:bold;font-stretch:condensed;font-family:PT Sans Narrow;-inkscape-font-specification:PT Sans Narrow Bold Condensed;fill:#ffffff"
         id="path3037"
         inkscape:connector-curvature="0" />
      <path
         d="m 109.88783,1046.4893 c -0.22534,0.1906 -0.52867,0.3293 -0.91,0.416 -0.37267,0.087 -0.74534,0.13 -1.118,0.13 -0.468,0 -0.90567,-0.078 -1.313,-0.234 -0.39867,-0.1647 -0.74967,-0.4334 -1.053,-0.806 -0.30333,-0.3727 -0.54167,-0.8624 -0.715,-1.469 -0.17333,-0.6067 -0.26,-1.352 -0.26,-2.236 0,-0.9187 0.0953,-1.6814 0.286,-2.288 0.19933,-0.6067 0.455,-1.0877 0.767,-1.443 0.32067,-0.364 0.68466,-0.6197 1.092,-0.767 0.40733,-0.1474 0.819,-0.221 1.235,-0.221 0.42466,0 0.793,0.035 1.105,0.104 0.32066,0.069 0.58066,0.1473 0.78,0.234 l -0.325,1.443 c -0.16467,-0.087 -0.35967,-0.1517 -0.585,-0.195 -0.21667,-0.052 -0.47667,-0.078 -0.78,-0.078 -0.598,0 -1.05734,0.26 -1.378,0.78 -0.32067,0.52 -0.481,1.3346 -0.481,2.444 0,0.4766 0.0347,0.9143 0.104,1.313 0.078,0.39 0.195,0.728 0.351,1.014 0.16466,0.286 0.36833,0.507 0.611,0.663 0.25133,0.156 0.55033,0.234 0.897,0.234 0.30333,0 0.56333,-0.039 0.78,-0.117 0.21666,-0.087 0.41166,-0.1864 0.585,-0.299 l 0.325,1.378"
         style="font-variant:normal;font-weight:bold;font-stretch:condensed;font-family:PT Sans Narrow;-inkscape-font-specification:PT Sans Narrow Bold Condensed;fill:#ffffff"
         id="path3039"
         inkscape:connector-curvature="0" />
      <path
         d="m 115.50624,1046.8533 0,-3.926 c -1e-5,-0.468 -0.0563,-0.806 -0.169,-1.014 -0.10401,-0.208 -0.29901,-0.312 -0.585,-0.312 -0.20801,0 -0.39867,0.074 -0.572,0.221 -0.17334,0.1473 -0.29034,0.3336 -0.351,0.559 l 0,4.472 -1.547,0 0,-9.1 1.547,0 0,3.185 0.039,0 c 0.17333,-0.2254 0.38133,-0.4074 0.624,-0.546 0.25133,-0.1387 0.56333,-0.208 0.936,-0.208 0.26866,0 0.50266,0.039 0.702,0.117 0.19932,0.078 0.36832,0.208 0.507,0.39 0.13866,0.182 0.24266,0.429 0.312,0.741 0.0693,0.3033 0.10399,0.689 0.104,1.157 l 0,4.264 -1.547,0"
         style="font-variant:normal;font-weight:bold;font-stretch:condensed;font-family:PT Sans Narrow;-inkscape-font-specification:PT Sans Narrow Bold Condensed;fill:#ffffff"
         id="path3041"
         inkscape:connector-curvature="0" />
      <path
         d="m 122.83008,1041.8873 c -0.208,-0.078 -0.39867,-0.117 -0.572,-0.117 -0.234,0 -0.43767,0.065 -0.611,0.195 -0.16467,0.13 -0.27734,0.312 -0.338,0.546 l 0,4.342 -1.547,0 0,-6.5 1.183,0 0.182,0.78 0.052,0 c 0.11266,-0.286 0.273,-0.507 0.481,-0.663 0.21666,-0.1647 0.46366,-0.247 0.741,-0.247 0.208,0 0.41166,0.043 0.611,0.13 l -0.182,1.534"
         style="font-variant:normal;font-weight:bold;font-stretch:condensed;font-family:PT Sans Narrow;-inkscape-font-specification:PT Sans Narrow Bold Condensed;fill:#ffffff"
         id="path3043"
         inkscape:connector-curvature="0" />
      <path
         d="m 124.97668,1043.6033 c 0,-1.1527 0.22533,-2.0107 0.676,-2.574 0.45066,-0.5634 1.07899,-0.845 1.885,-0.845 0.86666,0 1.51233,0.286 1.937,0.858 0.42466,0.572 0.63699,1.4256 0.637,2.561 -1e-5,1.1613 -0.22534,2.0236 -0.676,2.587 -0.45067,0.5546 -1.08334,0.832 -1.898,0.832 -1.70734,0 -2.561,-1.1397 -2.561,-3.419 m 1.599,0 c -1e-5,0.65 0.0737,1.1526 0.221,1.508 0.14733,0.3553 0.39433,0.533 0.741,0.533 0.32933,0 0.57199,-0.1517 0.728,-0.455 0.16466,-0.312 0.24699,-0.8407 0.247,-1.586 -10e-6,-0.6674 -0.0737,-1.1744 -0.221,-1.521 -0.14734,-0.3467 -0.39867,-0.52 -0.754,-0.52 -0.30334,0 -0.54167,0.156 -0.715,0.468 -0.16467,0.3033 -0.24701,0.8276 -0.247,1.573"
         style="font-variant:normal;font-weight:bold;font-stretch:condensed;font-family:PT Sans Narrow;-inkscape-font-specification:PT Sans Narrow Bold Condensed;fill:#ffffff"
         id="path3045"
         inkscape:connector-curvature="0" />
      <path
         d="m 135.86374,1046.8533 0,-3.952 c -1e-5,-0.4767 -0.0563,-0.8104 -0.169,-1.001 -0.11267,-0.1907 -0.30334,-0.286 -0.572,-0.286 -0.22534,0 -0.42034,0.069 -0.585,0.208 -0.16467,0.1386 -0.28167,0.312 -0.351,0.52 l 0,4.511 -1.547,0 0,-6.5 1.235,0 0.182,0.754 0.039,0 c 0.156,-0.2514 0.36833,-0.4637 0.637,-0.637 0.26866,-0.182 0.61966,-0.273 1.053,-0.273 0.25999,0 0.48966,0.039 0.689,0.117 0.20799,0.078 0.38133,0.208 0.52,0.39 0.13866,0.1733 0.24266,0.4116 0.312,0.715 0.0693,0.2946 0.10399,0.663 0.104,1.105 l 0,4.329 -1.547,0"
         style="font-variant:normal;font-weight:bold;font-stretch:condensed;font-family:PT Sans Narrow;-inkscape-font-specification:PT Sans Narrow Bold Condensed;fill:#ffffff"
         id="path3047"
         inkscape:connector-curvature="0" />
      <path
         d="m 140.24958,1040.3533 1.547,0 0,6.5 -1.547,0 0,-6.5 m -0.182,-1.833 c 0,-0.26 0.0823,-0.4724 0.247,-0.637 0.16467,-0.1734 0.39867,-0.26 0.702,-0.26 0.30333,0 0.546,0.082 0.728,0.247 0.182,0.1646 0.273,0.3813 0.273,0.65 0,0.2686 -0.091,0.481 -0.273,0.637 -0.182,0.156 -0.42467,0.234 -0.728,0.234 -0.30333,0 -0.53733,-0.078 -0.702,-0.234 -0.16467,-0.1647 -0.247,-0.377 -0.247,-0.637"
         style="font-variant:normal;font-weight:bold;font-stretch:condensed;font-family:PT Sans Narrow;-inkscape-font-specification:PT Sans Narrow Bold Condensed;fill:#ffffff"
         id="path3049"
         inkscape:connector-curvature="0" />
      <path
         d="m 148.5145,1046.5023 c -0.21667,0.1733 -0.47667,0.3033 -0.78,0.39 -0.30333,0.087 -0.60667,0.13 -0.91,0.13 -0.442,0 -0.81467,-0.078 -1.118,-0.234 -0.29467,-0.1647 -0.53733,-0.3944 -0.728,-0.689 -0.19066,-0.3034 -0.32933,-0.663 -0.416,-1.079 -0.078,-0.4247 -0.117,-0.897 -0.117,-1.417 0,-1.1354 0.20367,-1.989 0.611,-2.561 0.40733,-0.572 1.00533,-0.858 1.794,-0.858 0.39,0 0.70633,0.035 0.949,0.104 0.25133,0.069 0.47233,0.156 0.663,0.26 l -0.364,1.287 c -0.156,-0.078 -0.30767,-0.1344 -0.455,-0.169 -0.13867,-0.043 -0.30767,-0.065 -0.507,-0.065 -0.364,0 -0.637,0.1603 -0.819,0.481 -0.182,0.312 -0.273,0.819 -0.273,1.521 0,0.5893 0.091,1.0703 0.273,1.443 0.19067,0.3726 0.48967,0.559 0.897,0.559 0.21667,0 0.39867,-0.026 0.546,-0.078 0.156,-0.061 0.299,-0.1344 0.429,-0.221 l 0.325,1.196"
         style="font-variant:normal;font-weight:bold;font-stretch:condensed;font-family:PT Sans Narrow;-inkscape-font-specification:PT Sans Narrow Bold Condensed;fill:#ffffff"
         id="path3051"
         inkscape:connector-curvature="0" />
      <path
         d="m 152.43742,1044.7473 c 0,0.3033 0.0303,0.52 0.091,0.65 0.0607,0.13 0.16033,0.195 0.299,0.195 0.078,0 0.156,-0.01 0.234,-0.026 0.0867,-0.017 0.182,-0.048 0.286,-0.091 l 0.143,1.248 c -0.104,0.069 -0.28167,0.1343 -0.533,0.195 -0.25133,0.061 -0.507,0.091 -0.767,0.091 -0.43333,0 -0.75833,-0.1084 -0.975,-0.325 -0.21666,-0.2167 -0.325,-0.585 -0.325,-1.105 l 0,-7.826 1.547,0 0,6.994"
         style="font-variant:normal;font-weight:bold;font-stretch:condensed;font-family:PT Sans Narrow;-inkscape-font-specification:PT Sans Narrow Bold Condensed;fill:#ffffff"
         id="path3053"
         inkscape:connector-curvature="0" />
      <path
         d="m 160.04686,1046.3723 c -0.21667,0.1906 -0.51134,0.3466 -0.884,0.468 -0.37267,0.1213 -0.76267,0.182 -1.17,0.182 -0.45067,0 -0.84067,-0.078 -1.17,-0.234 -0.32067,-0.156 -0.585,-0.3814 -0.793,-0.676 -0.208,-0.2947 -0.364,-0.65 -0.468,-1.066 -0.0953,-0.4247 -0.143,-0.9057 -0.143,-1.443 0,-1.17 0.22967,-2.0324 0.689,-2.587 0.468,-0.5634 1.11367,-0.845 1.937,-0.845 0.27733,0 0.546,0.043 0.806,0.13 0.26,0.078 0.48966,0.2166 0.689,0.416 0.208,0.1906 0.37266,0.4506 0.494,0.78 0.13,0.3206 0.195,0.728 0.195,1.222 0,0.1906 -0.013,0.3943 -0.039,0.611 -0.0173,0.2166 -0.0477,0.4506 -0.091,0.702 l -3.159,0 c 0.0173,0.5373 0.13,0.949 0.338,1.235 0.208,0.286 0.54166,0.429 1.001,0.429 0.27733,0 0.52866,-0.043 0.754,-0.13 0.234,-0.087 0.41166,-0.1777 0.533,-0.273 l 0.481,1.079 m -2.028,-4.875 c -0.32934,0 -0.57634,0.1343 -0.741,0.403 -0.16467,0.26 -0.26,0.6283 -0.286,1.105 l 1.794,0 c 0.026,-0.494 -0.026,-0.8667 -0.156,-1.118 -0.13,-0.26 -0.33367,-0.39 -0.611,-0.39"
         style="font-variant:normal;font-weight:bold;font-stretch:condensed;font-family:PT Sans Narrow;-inkscape-font-specification:PT Sans Narrow Bold Condensed;fill:#ffffff"
         id="path3055"
         inkscape:connector-curvature="0" />
    </g>
  </g>
</svg>
