<?xml version="1.0" encoding="UTF-8" standalone="no"?>
<!-- Created with Inkscape (http://www.inkscape.org/) -->

<svg
   xmlns:dc="http://purl.org/dc/elements/1.1/"
   xmlns:cc="http://creativecommons.org/ns#"
   xmlns:rdf="http://www.w3.org/1999/02/22-rdf-syntax-ns#"
   xmlns:svg="http://www.w3.org/2000/svg"
   xmlns="http://www.w3.org/2000/svg"
   xmlns:sodipodi="http://sodipodi.sourceforge.net/DTD/sodipodi-0.dtd"
   xmlns:inkscape="http://www.inkscape.org/namespaces/inkscape"
   width="180"
   height="60"
   id="svg2"
   version="1.1"
   inkscape:version="0.48.3.1 r9886"
   sodipodi:docname="qDukeLogo.svg"
   inkscape:export-filename="/home/ghr4/Chronicle/chronjs/public/img/qduke/New Logo/qDukeLogo.png"
   inkscape:export-xdpi="90"
   inkscape:export-ydpi="90">
  <defs
     id="defs4" />
  <sodipodi:namedview
     id="base"
     pagecolor="#ffffff"
     bordercolor="#666666"
     borderopacity="1.0"
     inkscape:pageopacity="0.0"
     inkscape:pageshadow="2"
     inkscape:zoom="2.8"
     inkscape:cx="36.882002"
     inkscape:cy="-22.67358"
     inkscape:document-units="px"
     inkscape:current-layer="text2989"
     showgrid="false"
     inkscape:window-width="1535"
     inkscape:window-height="876"
     inkscape:window-x="65"
     inkscape:window-y="24"
     inkscape:window-maximized="1" />
  <metadata
     id="metadata7">
    <rdf:RDF>
      <cc:Work
         rdf:about="">
        <dc:format>image/svg+xml</dc:format>
        <dc:type
           rdf:resource="http://purl.org/dc/dcmitype/StillImage" />
        <dc:title></dc:title>
      </cc:Work>
    </rdf:RDF>
  </metadata>
  <g
     inkscape:label="Layer 1"
     inkscape:groupmode="layer"
     id="layer1"
     transform="translate(0,-992.36218)">
    <g
       style="font-size:56px;font-style:normal;font-weight:normal;line-height:125%;letter-spacing:0px;word-spacing:0px;fill:#000000;fill-opacity:1;stroke:none;font-family:Sans"
       id="text2989"
       transform="matrix(0.93424257,0,0,0.93424257,17.299823,66.585643)">
      <path
         d="m 16.297925,1018.2651 c 0.42554,-2.9315 1.60759,-8.1798 5.62653,-8.1798 l 6.52488,0 -2.45865,15.7448 c -2.88419,0.8984 -4.11351,1.0875 -6.71401,1.0875 -4.20807,0 -3.73525,-3.357 -2.97875,-8.6525 m -5.48468,-0.3783 c -1.2766,7.9906 -0.0473,13.6172 7.18683,13.6172 2.12767,0 4.82273,-0.5675 7.37594,-1.844 l -2.22224,14.1372 c -0.29866,2.115 0.72117,3.6676 2.68479,4.3131 2.56811,0.8442 8.84258,-1.2041 11.69584,-1.6938 0.27048,1.1922 -0.60079,3.2575 -1.06909,4.6512 5.11094,-1.6316 8.34135,-4.405 9.69124,-7.3126 -1.62585,-3.0681 -3.85615,-5.8004 -6.95955,-6.8535 -0.0321,1.4942 -0.1985,3.5929 -0.70072,4.6841 -4.2262,1.4759 -6.10175,1.8101 -9.85783,2.2115 l 5.81566,-36.9271 c -2.26952,-0.4728 -7.61237,-1.2766 -12.62422,-1.2766 -6.00478,0 -9.69276,3.7826 -11.01665,12.2933"
         style="font-size:64px;font-style:italic;font-variant:normal;font-weight:600;font-stretch:normal;text-align:start;line-height:125%;letter-spacing:0px;word-spacing:0px;writing-mode:lr-tb;text-anchor:start;fill:#ffffff;fill-opacity:1;stroke:none;font-family:Exo;-inkscape-font-specification:Exo Semi-Bold Italic"
         id="path3987"
         inkscape:connector-curvature="0"
         sodipodi:nodetypes="csccsccsccscccccccsc"
         inkscape:export-xdpi="90"
         inkscape:export-ydpi="90" />
      <g
         style="font-size:8.86532307000000053px;font-variant:normal;font-stretch:normal;text-align:start;writing-mode:lr-tb;text-anchor:start;fill:#ffffff;font-family:PT Sans;-inkscape-font-specification:PT Sans"
         id="text4094">
        <path
           d="m 51.923496,1037.6466 1.063839,0 0,3.3112 0.05319,0 c 0.2039,-0.2571 0.460994,-0.4565 0.771283,-0.5984 0.319149,-0.1418 0.664896,-0.2128 1.037243,-0.2128 0.859932,0 1.502667,0.2749 1.928208,0.8245 0.434394,0.5497 0.651595,1.4007 0.651601,2.5532 -6e-6,1.1614 -0.283697,2.0435 -0.851071,2.6463 -0.567386,0.6029 -1.365264,0.9043 -2.393637,0.9043 -0.496461,0 -0.948592,-0.053 -1.356395,-0.1596 -0.398941,-0.1064 -0.700362,-0.2216 -0.904263,-0.3457 l 0,-8.923 m 2.739385,3.4309 c -0.443269,0 -0.802315,0.1241 -1.077137,0.3723 -0.274827,0.2483 -0.474297,0.5984 -0.598409,1.0506 l 0,3.3511 c 0.168439,0.098 0.372341,0.1728 0.611707,0.226 0.239361,0.044 0.48759,0.066 0.744688,0.066 0.602837,0 1.081564,-0.2127 1.436182,-0.6383 0.363473,-0.4255 0.545212,-1.0904 0.545217,-1.9947 -5e-6,-0.3457 -0.03103,-0.6693 -0.09309,-0.9707 -0.06206,-0.3014 -0.159581,-0.5585 -0.292555,-0.7713 -0.132985,-0.2128 -0.305859,-0.3812 -0.518622,-0.5053 -0.203906,-0.1241 -0.456568,-0.1862 -0.757985,-0.1862"
           style="font-size:13.29798508000000012px;fill:#ffffff"
           id="path4302" />
        <path
           d="m 60.89091,1044.6148 0.372343,1.2766 0.06649,0 0.292556,-1.2899 1.289904,-4.2953 1.077137,0 -1.968102,5.9708 c -0.150714,0.4344 -0.301425,0.8555 -0.452131,1.2633 -0.141849,0.4078 -0.301425,0.7713 -0.478728,1.0904 -0.177309,0.3192 -0.376779,0.5719 -0.598409,0.758 -0.221635,0.1951 -0.47873,0.2926 -0.771283,0.2926 -0.319153,0 -0.58068,-0.044 -0.784581,-0.133 l 0.186172,-0.9176 c 0.115247,0.044 0.226064,0.067 0.332449,0.067 0.248227,0 0.487591,-0.1329 0.718091,-0.3989 0.230496,-0.2571 0.421101,-0.7048 0.571814,-1.3431 l -2.672895,-6.649 1.223414,0 1.595759,4.3086"
           style="font-size:13.29798508000000012px;fill:#ffffff"
           id="path4304" />
        <path
           d="m 74.617339,1039.269 -2.712789,0 0,7.6862 -1.821824,0 0,-7.6862 -2.726087,0 0,-1.6224 7.2607,0 0,1.6224"
           style="font-weight:bold;fill:#ffffff;-inkscape-font-specification:PT Sans Bold"
           id="path4306" />
        <path
           d="m 79.595565,1046.9552 0,-3.7766 c -5e-6,-0.5408 -0.07536,-0.9309 -0.226066,-1.1703 -0.150715,-0.2393 -0.425539,-0.359 -0.824475,-0.359 -0.292559,0 -0.562951,0.102 -0.811177,0.3059 -0.239366,0.195 -0.398942,0.4477 -0.478727,0.7579 l 0,4.2421 -1.728738,0 0,-9.3086 1.728738,0 0,3.4043 0.05319,0 c 0.212765,-0.2837 0.474291,-0.5098 0.784581,-0.6782 0.310282,-0.1684 0.704789,-0.2527 1.18352,-0.2527 0.336878,0 0.633866,0.044 0.890965,0.133 0.257089,0.089 0.469857,0.235 0.638304,0.4388 0.1773,0.204 0.305847,0.4832 0.385641,0.8378 0.08865,0.3458 0.132973,0.7757 0.13298,1.2899 l 0,4.1357 -1.728738,0"
           style="font-weight:bold;fill:#ffffff;-inkscape-font-specification:PT Sans Bold"
           id="path4308" />
        <path
           d="m 88.091938,1046.3834 c -0.265965,0.2128 -0.629443,0.3945 -1.090435,0.5452 -0.452136,0.1418 -0.935295,0.2128 -1.44948,0.2128 -1.072706,0 -1.857287,-0.3103 -2.353743,-0.9309 -0.496459,-0.6294 -0.744688,-1.4894 -0.744687,-2.5798 -10e-7,-1.1702 0.279257,-2.0479 0.837773,-2.633 0.558513,-0.5851 1.343094,-0.8777 2.353743,-0.8777 0.336878,0 0.664895,0.044 0.984051,0.133 0.319147,0.089 0.602837,0.235 0.851071,0.4388 0.248223,0.204 0.447693,0.4788 0.598409,0.8245 0.150705,0.3458 0.22606,0.7757 0.226066,1.2899 -6e-6,0.1862 -0.0133,0.3857 -0.03989,0.5984 -0.01774,0.2128 -0.04877,0.4344 -0.09309,0.6649 l -3.989395,0 c 0.02659,0.5586 0.168438,0.9797 0.425535,1.2633 0.265957,0.2837 0.691492,0.4256 1.276607,0.4256 0.363474,0 0.687058,-0.053 0.970753,-0.1596 0.29255,-0.1152 0.514183,-0.2305 0.664899,-0.3457 l 0.571813,1.1303 m -2.473425,-4.8804 c -0.452135,0 -0.789017,0.1374 -1.010647,0.4123 -0.21277,0.2659 -0.341317,0.625 -0.385641,1.0771 l 2.473425,0 c 0.03546,-0.4787 -0.0399,-0.8466 -0.226066,-1.1037 -0.177311,-0.2571 -0.461001,-0.3857 -0.851071,-0.3857"
           style="font-weight:bold;fill:#ffffff;-inkscape-font-specification:PT Sans Bold"
           id="path4310" />
        <path
           d="m 99.0634,1046.5696 c -0.283697,0.2039 -0.647175,0.3501 -1.090434,0.4388 -0.434407,0.089 -0.882105,0.133 -1.343097,0.133 -0.558519,0 -1.090438,-0.084 -1.595758,-0.2527 -0.496461,-0.1773 -0.935294,-0.4566 -1.316501,-0.8378 -0.38121,-0.39 -0.687063,-0.8909 -0.91756,-1.5026 -0.221634,-0.6206 -0.332451,-1.3697 -0.33245,-2.2474 -10e-7,-0.9131 0.124114,-1.6755 0.372343,-2.2872 0.257094,-0.6206 0.58511,-1.1171 0.984051,-1.4894 0.407803,-0.3812 0.859934,-0.6516 1.356395,-0.8112 0.496454,-0.1684 0.992912,-0.2527 1.489374,-0.2527 0.531914,0 0.979613,0.035 1.343097,0.1064 0.372337,0.071 0.67819,0.1552 0.917561,0.2527 l -0.359046,1.5426 c -0.203909,-0.098 -0.447705,-0.1685 -0.731389,-0.2128 -0.274831,-0.044 -0.611713,-0.067 -1.010647,-0.067 -0.735826,0 -1.329802,0.2615 -1.78193,0.7846 -0.443269,0.523 -0.664902,1.3342 -0.664899,2.4335 -3e-6,0.4787 0.05319,0.9176 0.159576,1.3165 0.106381,0.3901 0.265956,0.727 0.478727,1.0107 0.22163,0.2748 0.492022,0.492 0.811177,0.6516 0.328013,0.1507 0.704789,0.226 1.130329,0.226 0.398934,0 0.735816,-0.04 1.010647,-0.1197 0.274818,-0.08 0.514182,-0.1817 0.718091,-0.3058 l 0.372343,1.4894"
           style="font-weight:bold;fill:#ffffff;-inkscape-font-specification:PT Sans Bold"
           id="path4312" />
        <path
           d="m 104.21761,1046.9552 0,-3.7766 c 0,-0.5408 -0.0754,-0.9309 -0.22606,-1.1703 -0.15072,-0.2393 -0.42554,-0.359 -0.82448,-0.359 -0.29256,0 -0.56295,0.102 -0.81117,0.3059 -0.23937,0.195 -0.39895,0.4477 -0.47873,0.7579 l 0,4.2421 -1.72874,0 0,-9.3086 1.72874,0 0,3.4043 0.0532,0 c 0.21277,-0.2837 0.47429,-0.5098 0.78458,-0.6782 0.31028,-0.1684 0.70479,-0.2527 1.18352,-0.2527 0.33688,0 0.63387,0.044 0.89097,0.133 0.25709,0.089 0.46985,0.235 0.6383,0.4388 0.1773,0.204 0.30585,0.4832 0.38564,0.8378 0.0886,0.3458 0.13298,0.7757 0.13298,1.2899 l 0,4.1357 -1.72874,0"
           style="font-weight:bold;fill:#ffffff;-inkscape-font-specification:PT Sans Bold"
           id="path4314" />
        <path
           d="m 111.06504,1041.9286 c -0.27483,-0.098 -0.52306,-0.1463 -0.74469,-0.1463 -0.31029,0 -0.57181,0.084 -0.78458,0.2526 -0.2039,0.1596 -0.34132,0.368 -0.41224,0.6251 l 0,4.2952 -1.72873,0 0,-6.649 1.34309,0 0.19947,0.8777 0.0532,0 c 0.15071,-0.328 0.35461,-0.5807 0.61171,-0.758 0.25709,-0.1773 0.55851,-0.266 0.90426,-0.266 0.2305,0 0.49203,0.049 0.78459,0.1463 l -0.22607,1.6224"
           style="font-weight:bold;fill:#ffffff;-inkscape-font-specification:PT Sans Bold"
           id="path4316" />
        <path
           d="m 111.75072,1043.6307 c 0,-1.1259 0.27482,-1.9903 0.82447,-2.5931 0.54965,-0.6117 1.32093,-0.9176 2.31385,-0.9176 0.53192,0 0.99291,0.084 1.38299,0.2527 0.39007,0.1684 0.71365,0.4078 0.97075,0.7181 0.25709,0.3014 0.4477,0.6693 0.57182,1.1037 0.13297,0.4344 0.19946,0.9132 0.19947,1.4362 -1e-5,1.1259 -0.27483,1.9947 -0.82448,2.6064 -0.54079,0.6029 -1.30764,0.9043 -2.30055,0.9043 -0.53192,0 -0.99292,-0.084 -1.38299,-0.2527 -0.39008,-0.1684 -0.71809,-0.4034 -0.98405,-0.7048 -0.2571,-0.3103 -0.45213,-0.6826 -0.58511,-1.117 -0.12412,-0.4344 -0.18617,-0.9131 -0.18617,-1.4362 m 1.78193,0 c -1e-5,0.2926 0.0266,0.563 0.0798,0.8112 0.0532,0.2482 0.13298,0.4654 0.23937,0.6516 0.10638,0.1862 0.24379,0.3324 0.41223,0.4388 0.17731,0.097 0.38564,0.1463 0.62501,0.1463 0.45213,0 0.78901,-0.164 1.01065,-0.492 0.22163,-0.328 0.33244,-0.8467 0.33245,-1.5559 -1e-5,-0.6117 -0.10196,-1.1037 -0.30586,-1.4761 -0.2039,-0.3812 -0.54965,-0.5718 -1.03724,-0.5718 -0.42554,0 -0.75799,0.1596 -0.99735,0.4787 -0.23936,0.3192 -0.35905,0.8423 -0.35904,1.5692"
           style="font-weight:bold;fill:#ffffff;-inkscape-font-specification:PT Sans Bold"
           id="path4318" />
        <path
           d="m 123.28152,1046.9552 0,-3.7766 c 0,-0.5408 -0.0798,-0.9309 -0.23936,-1.1703 -0.15072,-0.2393 -0.41224,-0.359 -0.78458,-0.359 -0.32802,0 -0.60728,0.097 -0.83778,0.2926 -0.22163,0.1861 -0.38121,0.4211 -0.47872,0.7048 l 0,4.3085 -1.72874,0 0,-6.649 1.36969,0 0.19947,0.8777 0.0532,0 c 0.2039,-0.2837 0.47429,-0.5319 0.81118,-0.7447 0.33688,-0.2128 0.77128,-0.3192 1.3032,-0.3192 0.32801,0 0.62057,0.044 0.87767,0.133 0.25709,0.089 0.47429,0.235 0.6516,0.4388 0.1773,0.204 0.31028,0.4832 0.39894,0.8378 0.0887,0.3458 0.13297,0.7757 0.13298,1.2899 l 0,4.1357 -1.72874,0"
           style="font-weight:bold;fill:#ffffff;-inkscape-font-specification:PT Sans Bold"
           id="path4320" />
        <path
           d="m 126.60498,1040.3062 1.72874,0 0,6.649 -1.72874,0 0,-6.649 m -0.25266,-1.875 c -1e-5,-0.2571 0.0931,-0.4743 0.27925,-0.6516 0.19504,-0.1862 0.461,-0.2793 0.79788,-0.2793 0.33688,0 0.60727,0.093 0.81118,0.2793 0.21276,0.1773 0.31915,0.3945 0.31915,0.6516 0,0.2571 -0.10639,0.4743 -0.31915,0.6516 -0.20391,0.1684 -0.4743,0.2527 -0.81118,0.2527 -0.33688,0 -0.60284,-0.084 -0.79788,-0.2527 -0.18617,-0.1773 -0.27926,-0.3945 -0.27925,-0.6516"
           style="font-weight:bold;fill:#ffffff;-inkscape-font-specification:PT Sans Bold"
           id="path4322" />
        <path
           d="m 134.75041,1046.543 c -0.26596,0.195 -0.58954,0.3413 -0.97075,0.4388 -0.37235,0.1064 -0.75799,0.1596 -1.15692,0.1596 -0.53193,0 -0.98406,-0.084 -1.3564,-0.2527 -0.36348,-0.1684 -0.66047,-0.4034 -0.89096,-0.7048 -0.2305,-0.3103 -0.39894,-0.6826 -0.50533,-1.117 -0.0975,-0.4344 -0.14627,-0.9131 -0.14627,-1.4362 0,-1.1259 0.25266,-1.9903 0.75798,-2.5931 0.50532,-0.6117 1.24114,-0.9176 2.20747,-0.9176 0.48759,0 0.87766,0.04 1.17022,0.1197 0.30142,0.08 0.57181,0.1818 0.81118,0.3059 l -0.41224,1.4096 c -0.20391,-0.098 -0.40781,-0.1729 -0.61171,-0.2261 -0.19504,-0.053 -0.42111,-0.08 -0.6782,-0.08 -0.47873,0 -0.8422,0.1596 -1.09043,0.4787 -0.24823,0.3103 -0.37235,0.8112 -0.37234,1.5027 -1e-5,0.2837 0.031,0.5452 0.0931,0.7846 0.0621,0.2394 0.15514,0.4477 0.27926,0.625 0.12411,0.1773 0.28369,0.3191 0.47873,0.4255 0.2039,0.098 0.43883,0.1463 0.70479,0.1463 0.29255,0 0.54078,-0.035 0.74469,-0.1064 0.2039,-0.08 0.38563,-0.1729 0.54521,-0.2792 l 0.39894,1.3165"
           style="font-weight:bold;fill:#ffffff;-inkscape-font-specification:PT Sans Bold"
           id="path4324" />
        <path
           d="m 137.59078,1044.7211 c 0,0.3103 0.0399,0.5364 0.11968,0.6782 0.0798,0.1419 0.20833,0.2128 0.38564,0.2128 0.10638,0 0.20834,-0.01 0.30586,-0.027 0.10638,-0.018 0.23492,-0.058 0.38564,-0.1197 l 0.18617,1.3564 c -0.14185,0.071 -0.35905,0.1419 -0.6516,0.2128 -0.29256,0.071 -0.59398,0.1064 -0.90426,0.1064 -0.50533,0 -0.89097,-0.1153 -1.15693,-0.3458 -0.26596,-0.2393 -0.39894,-0.6294 -0.39894,-1.1702 l 0,-7.9788 1.72874,0 0,7.0745"
           style="font-weight:bold;fill:#ffffff;-inkscape-font-specification:PT Sans Bold"
           id="path4326" />
        <path
           d="m 145.04991,1046.3834 c -0.26596,0.2128 -0.62944,0.3945 -1.09043,0.5452 -0.45214,0.1418 -0.9353,0.2128 -1.44948,0.2128 -1.07271,0 -1.85729,-0.3103 -2.35375,-0.9309 -0.49646,-0.6294 -0.74468,-1.4894 -0.74468,-2.5798 0,-1.1702 0.27925,-2.0479 0.83777,-2.633 0.55851,-0.5851 1.34309,-0.8777 2.35374,-0.8777 0.33688,0 0.6649,0.044 0.98405,0.133 0.31915,0.089 0.60284,0.235 0.85107,0.4388 0.24823,0.204 0.4477,0.4788 0.59841,0.8245 0.15071,0.3458 0.22606,0.7757 0.22607,1.2899 -10e-6,0.1862 -0.0133,0.3857 -0.0399,0.5984 -0.0177,0.2128 -0.0488,0.4344 -0.0931,0.6649 l -3.9894,0 c 0.0266,0.5586 0.16844,0.9797 0.42554,1.2633 0.26596,0.2837 0.69149,0.4256 1.27661,0.4256 0.36347,0 0.68705,-0.053 0.97075,-0.1596 0.29255,-0.1152 0.51418,-0.2305 0.6649,-0.3457 l 0.57181,1.1303 m -2.47342,-4.8804 c -0.45214,0 -0.78902,0.1374 -1.01065,0.4123 -0.21277,0.2659 -0.34132,0.625 -0.38564,1.0771 l 2.47342,0 c 0.0355,-0.4787 -0.0399,-0.8466 -0.22606,-1.1037 -0.17731,-0.2571 -0.461,-0.3857 -0.85107,-0.3857"
           style="font-weight:bold;fill:#ffffff;-inkscape-font-specification:PT Sans Bold"
           id="path4328" />
      </g>
      <g
         style="font-size:50.23682784999999740px;font-variant:normal;font-stretch:normal;fill:#ffffff;font-family:PT Sans;-inkscape-font-specification:PT Sans"
         id="text3815">
        <path
           d="m 42.732197,996.96276 c 0.636328,-0.10044 1.339643,-0.16742 2.109947,-0.20095 0.803782,-0.0669 1.624316,-0.10043 2.461604,-0.10047 0.870762,-0.0335 1.708042,-0.0502 2.511842,-0.0502 0.837268,-0.0335 1.607565,-0.0502 2.310894,-0.0502 2.813246,3e-5 5.241357,0.43542 7.28434,1.30615 2.076432,0.87081 3.784483,2.09324 5.124156,3.66728 1.339622,1.5406 2.327612,3.3994 2.963973,5.5763 0.669795,2.177 1.004707,4.5716 1.004737,7.1839 -3e-5,2.3779 -0.318197,4.672 -0.9545,6.8824 -0.60287,2.1769 -1.574115,4.1194 -2.913736,5.8275 -1.339674,1.6745 -3.081215,3.0309 -5.22463,4.0692 -2.143457,1.0047 -4.739024,1.5071 -7.786708,1.5071 -0.535873,0 -1.239187,-0.017 -2.109947,-0.05 -0.837291,0 -1.708062,-0.034 -2.612315,-0.1004 -0.904271,-0.034 -1.74155,-0.067 -2.511842,-0.1005 -0.770303,-0.034 -1.322907,-0.084 -1.657815,-0.1507 l 0,-35.21604 m 9.49476,3.31564 c -0.435399,0 -0.921021,0 -1.456868,0 -0.50238,0 -1.004747,0.017 -1.507104,0.05 -0.502379,0.034 -0.971256,0.067 -1.406632,0.1005 -0.401903,0.034 -0.720069,0.067 -0.954499,0.1005 l 0,28.1326 c 0.167447,0.034 0.485613,0.067 0.954499,0.1005 0.468868,0 0.95449,0.017 1.456868,0.05 0.502357,0 0.98798,0.017 1.456868,0.05 0.468865,0 0.787031,0 0.9545,0 2.34437,0 4.303604,-0.4018 5.877709,-1.2056 1.607558,-0.8038 2.880223,-1.8755 3.817999,-3.2152 0.971221,-1.3731 1.657791,-2.9305 2.05971,-4.672 0.401869,-1.775 0.602816,-3.6003 0.602842,-5.4758 -2.6e-5,-1.6411 -0.184227,-3.2822 -0.552605,-4.9232 -0.368428,-1.6746 -1.004761,-3.1817 -1.909,-4.5214 -0.904285,-1.3396 -2.126713,-2.428 -3.667288,-3.2654 -1.507123,-0.8707 -3.416121,-1.3061 -5.726999,-1.3061"
           style="fill:#ffffff"
           id="path4331" />
        <path
           d="m 78.817155,1007.0101 0,14.3175 c -8e-6,1.3062 0.06697,2.4616 0.200947,3.4664 0.167448,0.9712 0.435378,1.7917 0.803789,2.4616 0.368395,0.6363 0.870762,1.1219 1.507105,1.4568 0.636322,0.335 1.440111,0.5024 2.411368,0.5024 0.904249,0 1.708038,-0.134 2.411367,-0.4019 0.703301,-0.3014 1.322887,-0.7033 1.858763,-1.2057 0.569334,-0.5023 1.054956,-1.0717 1.456868,-1.708 0.435367,-0.6698 0.787025,-1.3732 1.054973,-2.11 l 0,-16.7791 4.018947,0 0,17.9848 c -2.4e-5,1.2057 0.03347,2.4616 0.100473,3.7678 0.100451,1.2726 0.251161,2.3946 0.452132,3.3658 l -2.763026,0 -1.004736,-3.9687 -0.251184,0 c -0.770317,1.3062 -1.808544,2.3947 -3.114684,3.2654 -1.306173,0.8708 -2.963986,1.3062 -4.973446,1.3062 -1.339659,0 -2.528596,-0.1675 -3.566814,-0.5024 -1.004744,-0.3014 -1.858769,-0.854 -2.562079,-1.6578 -0.669829,-0.8038 -1.188942,-1.8755 -1.557341,-3.2152 -0.334916,-1.3731 -0.502372,-3.0979 -0.502369,-5.1744 l 0,-15.1715 4.018947,0"
           style="fill:#ffffff"
           id="path4333" />
        <path
           d="m 108.61073,1020.8253 -2.31089,0 0,11.3032 -4.01895,0 0,-35.16574 4.01895,0 0,21.40084 2.05971,-0.7033 7.78671,-10.6502 4.67202,0 -7.68623,10.0976 -2.05971,1.6578 2.51184,2.0095 8.38955,11.3535 -4.97345,0 -8.38955,-11.3032"
           style="fill:#ffffff"
           id="path4335" />
        <path
           d="m 144.06773,1030.1191 c -1.00476,0.8038 -2.27742,1.4401 -3.818,1.909 -1.50712,0.4688 -3.1147,0.7033 -4.82273,0.7033 -1.90902,0 -3.56683,-0.3014 -4.97345,-0.9043 -1.40664,-0.6363 -2.56208,-1.5238 -3.46634,-2.6625 -0.90427,-1.1722 -1.57409,-2.5621 -2.00947,-4.1697 -0.43539,-1.6076 -0.65309,-3.4161 -0.65308,-5.4256 -10e-6,-4.2868 0.95449,-7.5522 2.8635,-9.7961 1.90899,-2.2439 4.63852,-3.3659 8.1886,-3.3659 1.13869,0 2.27739,0.134 3.4161,0.4019 1.13869,0.2344 2.16017,0.7033 3.06445,1.4066 0.90424,0.7033 1.64105,1.7081 2.21042,3.0142 0.56933,1.2727 0.854,2.964 0.85403,5.0739 -3e-5,1.1053 -0.1005,2.3277 -0.30142,3.6673 l -16.12603,0 c 0,1.4737 0.15071,2.7798 0.45214,3.9185 0.30141,1.1387 0.77029,2.11 1.40663,2.9137 0.63632,0.7703 1.45685,1.3732 2.4616,1.8086 1.03822,0.4019 2.29414,0.6028 3.76776,0.6028 1.13869,0 2.27739,-0.2009 3.41611,-0.6028 1.13868,-0.4019 1.9927,-0.8708 2.56208,-1.4067 l 1.5071,2.9138 m -8.64073,-20.1952 c -1.976,0 -3.56683,0.5191 -4.7725,1.5573 -1.1722,1.0383 -1.87552,2.8133 -2.10995,5.3251 l 12.45873,0 c -2e-5,-2.5453 -0.48564,-4.3203 -1.45686,-5.3251 -0.97127,-1.0382 -2.3444,-1.5573 -4.11942,-1.5573"
           style="fill:#ffffff"
           id="path4337" />
      </g>
    </g>
  </g>
</svg>
