<?xml version="1.0" encoding="UTF-8" standalone="no"?>
<!-- Created with Inkscape (http://www.inkscape.org/) -->

<svg
   xmlns:dc="http://purl.org/dc/elements/1.1/"
   xmlns:cc="http://creativecommons.org/ns#"
   xmlns:rdf="http://www.w3.org/1999/02/22-rdf-syntax-ns#"
   xmlns:svg="http://www.w3.org/2000/svg"
   xmlns="http://www.w3.org/2000/svg"
   xmlns:sodipodi="http://sodipodi.sourceforge.net/DTD/sodipodi-0.dtd"
   xmlns:inkscape="http://www.inkscape.org/namespaces/inkscape"
   width="180"
   height="60"
   id="svg2"
   version="1.1"
   inkscape:version="0.48.3.1 r9886"
   sodipodi:docname="qDukeLogo.svg">
  <defs
     id="defs4" />
  <sodipodi:namedview
     id="base"
     pagecolor="#ffffff"
     bordercolor="#666666"
     borderopacity="1.0"
     inkscape:pageopacity="0.0"
     inkscape:pageshadow="2"
     inkscape:zoom="3.959798"
     inkscape:cx="73.597174"
     inkscape:cy="21.693646"
     inkscape:document-units="px"
     inkscape:current-layer="layer1"
     showgrid="false"
     inkscape:window-width="1535"
     inkscape:window-height="876"
     inkscape:window-x="65"
     inkscape:window-y="24"
     inkscape:window-maximized="1" />
  <metadata
     id="metadata7">
    <rdf:RDF>
      <cc:Work
         rdf:about="">
        <dc:format>image/svg+xml</dc:format>
        <dc:type
           rdf:resource="http://purl.org/dc/dcmitype/StillImage" />
        <dc:title></dc:title>
      </cc:Work>
    </rdf:RDF>
  </metadata>
  <g
     inkscape:label="Layer 1"
     inkscape:groupmode="layer"
     id="layer1"
     transform="translate(0,-992.36218)">
    <g
       style="font-size:40px;font-style:normal;font-weight:normal;line-height:125%;letter-spacing:0px;word-spacing:0px;fill:#000000;fill-opacity:1;stroke:none;font-family:Sans"
       id="text2985"
       transform="translate(12.182762,0)">
      <path
         d="m 26.625687,1042.537 -3.84,0 0,-12 -0.192,0 c -0.640018,0.96 -1.456017,1.696 -2.448,2.208 -0.960015,0.512 -2.240014,0.768 -3.84,0.768 -3.200009,0 -5.568006,-1.008 -7.1040003,-3.024 -1.5360031,-2.048 -2.3040023,-5.2 -2.304,-9.456 -2.3e-6,-4.128 0.9919967,-7.248 2.976,-9.36 1.9839923,-2.112 4.8799903,-3.168 8.6880003,-3.168 1.695984,0 3.279982,0.16 4.752,0.48 1.503979,0.32 2.607978,0.656 3.312,1.008 l 0,32.544 m -9.648,-12.384 c 1.631986,0 2.911984,-0.416 3.84,-1.248 0.927983,-0.832 1.583982,-2.112 1.968,-3.84 l 0,-12.288 c -1.184017,-0.608 -2.816016,-0.912 -4.896,-0.912 -2.208011,0 -3.93601,0.752 -5.184,2.256 -1.216007,1.472 -1.824007,3.76 -1.824,6.864 -7e-6,1.344 0.111993,2.592 0.336,3.744 0.223993,1.12 0.575992,2.08 1.056,2.88 0.479992,0.8 1.103991,1.424 1.872,1.872 0.767989,0.448 1.711988,0.672 2.832,0.672"
         style="font-size:48px;font-variant:normal;font-stretch:normal;font-family:PT Sans;-inkscape-font-specification:PT Sans"
         id="path3013"
         inkscape:connector-curvature="0" />
    </g>
    <g
       style="font-size:56px;font-style:normal;font-weight:normal;line-height:125%;letter-spacing:0px;word-spacing:0px;fill:#000000;fill-opacity:1;stroke:none;font-family:Sans"
       id="text2989"
       transform="translate(12.182762,0)">
      <path
         d="m 43.47604,1002.0536 c 0,-0.784 0.112005,-1.792 4.704,-1.792 6.943993,0 17.248,5.096 17.248,16.576 0,11.368 -10.416004,15.008 -14.784,15.008 -3.639996,0 -7.168,-1.736 -7.168,-5.656 l 0,-24.136 m 9.856,31.136 c 9.63199,0 17.36,-6.888 17.36,-15.288 0,-13.496 -9.520012,-19.32002 -21.28,-19.32002 -1.791998,0 -3.360001,0.056 -4.816,0.168 -1.399998,0.056 -2.744001,0.168 -4.144,0.168 l -5.096,0 c -0.671999,0 -2.184,0 -2.184,0.952 0,0.61602 0.392001,0.61602 1.68,0.72802 1.455999,0.112 3.808,0 3.808,1.064 l 0,26.32 c 0,3.248 -1.288001,3.416 -2.52,3.64 -1.679998,0.28 -2.072,0.784 -2.072,1.232 0,0.56 0.728,0.56 1.008,0.56 0.671999,0 1.512001,-0.056 2.408,-0.112 0.895999,-0.056 1.848001,-0.112 2.632,-0.112 l 13.216,0"
         style="font-variant:normal;font-stretch:normal;font-family:Garamond 3 LT Std;-inkscape-font-specification:Garamond 3 LT Std"
         id="path3016"
         inkscape:connector-curvature="0" />
      <path
         d="m 83.55279,1034.1976 c 4.535996,0 6.944001,-3.304 7.84,-3.304 0.28,0 0.392,0.224 0.392,0.672 l 0,1.288 c 0,0.504 10e-7,0.896 0.448,0.896 0.504,0 2.800004,-0.504 6.72,-1.12 0.839999,-0.112 1.12,-0.224 1.12,-0.672 0,-0.56 -0.728002,-0.56 -2.912,-0.56 -0.503999,0 -1.456,-0.168 -1.456,-1.344 0,-5.656 0.224,-11.312 0.224,-16.968 0,-1.008 -0.784,-1.176 -1.176,-1.176 -1.119999,0 -2.184001,0.112 -3.304,0.112 -0.951999,0 -1.904001,-0.112 -2.856,-0.112 -0.615999,0 -1.232,0.112 -1.232,0.448 0,0.448 1.176001,0.784 1.624,0.896 2.631997,0.672 2.912,0.672 2.912,1.344 0,3.976 -0.112,8.008 -0.112,11.984 -0.056,2.296 -0.504006,4.928 -6.72,4.928 -2.743997,0 -4.424,-1.288 -4.424,-3.584 0,-4.984 0.112,-9.968 0.112,-14.952 0,-0.784 -0.112001,-1.064 -0.84,-1.064 -0.839999,0 -1.680001,0.112 -2.464,0.112 -0.839999,0 -1.624001,-0.112 -2.408,-0.112 -0.783999,0 -1.4,0 -1.4,0.504 0,0.392 0.336001,0.504 1.68,0.84 0.671999,0.168 1.624,0.28 1.624,1.064 0,3.304 -0.112,8.512 -0.112,11.928 0,4.76 1.456005,7.952 6.72,7.952"
         style="font-variant:normal;font-stretch:normal;font-family:Garamond 3 LT Std;-inkscape-font-specification:Garamond 3 LT Std"
         id="path3018"
         inkscape:connector-curvature="0" />
      <path
         d="m 105.33679,1029.4376 c 0,2.352 -1.176,2.184 -2.744,2.632 -0.56,0.168 -1.008,0.28 -1.008,0.784 0,0.504 1.008,0.56 1.344,0.56 0.952,0 2.688,-0.224 4.032,-0.224 1.232,0 2.408,0.224 3.752,0.224 0.56,0 1.288,-0.112 1.288,-0.56 0,-0.504 -0.728,-0.504 -1.624,-0.784 -0.504,-0.168 -1.232,-0.56 -1.232,-1.792 l 0,-7.952 c 0,-0.224 0.168,-0.28 0.392,-0.28 0.112,0 0.336,0.168 0.504,0.336 l 8.456,8.008 c 0.336,0.336 0.616,0.616 0.616,0.896 0,0.392 -0.504,0.728 -1.064,0.784 -0.952,0.112 -1.624,0.28 -1.624,0.784 0,0.504 0.504,0.56 1.68,0.56 1.344,0 2.688,-0.224 4.144,-0.224 1.68,0 3.136,0.224 4.312,0.224 0.896,0 1.456,-0.28 1.456,-0.56 0,-0.784 -2.128,-0.616 -4.424,-2.688 l -9.688,-8.792 c -0.168,-0.168 -0.448,-0.392 -0.448,-0.784 0,-0.616 9.184,-5.936 10.808,-6.664 0.784,-0.336 2.744,-0.728 2.744,-1.344 0,-0.56 -0.56,-0.672 -1.064,-0.672 -1.12,0 -2.8,0.112 -4.2,0.112 -1.456,0 -3.136,-0.112 -4.312,-0.112 -0.336,0 -0.784,0.28 -0.784,0.56 0,0.84 2.128,0.84 2.128,2.296 0,1.008 -8.568,6.048 -9.128,6.048 -0.392,0 -0.504,-0.28 -0.504,-0.896 l 0,-23.01602 c 0,-0.84 -0.336,-1.008 -0.616,-1.008 -0.336,0 -0.672,0 -0.952,0.112 l -3.808,1.456 c -0.784,0.27999 -1.176,0.392 -1.176,0.784 0,1.06399 2.744,0.112 2.744,3.08002 l 0,28.112"
         style="font-variant:normal;font-stretch:normal;font-family:Garamond 3 LT Std;-inkscape-font-specification:Garamond 3 LT Std"
         id="path3020"
         inkscape:connector-curvature="0" />
      <path
         d="m 147.61679,1020.1976 c 0.952,0 1.12,-0.28 1.12,-1.288 0,-2.408 -2.18401,-7.896 -8.624,-7.896 -6.94399,0 -10.192,6.552 -10.192,11.816 0,7 3.52801,11.368 9.688,11.368 5.82399,0 8.176,-4.088 8.176,-4.48 0,-0.28 -0.224,-0.448 -0.504,-0.448 -0.896,0 -1.008,2.24 -5.32,2.24 -6.83199,0 -8.12,-4.648 -8.12,-9.352 0,-0.896 0,-1.624 0.112,-1.96 l 13.664,0 m -8.288,-1.68 c -4.76,0 -4.872,-0.112 -4.872,-0.504 0,-1.736 2.408,-5.656 6.44,-5.656 2.352,0 4.144,1.512 4.144,3.416 0,2.016 -0.784,2.744 -5.712,2.744"
         style="font-variant:normal;font-stretch:normal;font-family:Garamond 3 LT Std;-inkscape-font-specification:Garamond 3 LT Std"
         id="path3022"
         inkscape:connector-curvature="0" />
    </g>
  </g>
</svg>
