<?xml version="1.0" encoding="UTF-8" standalone="no"?>
<!-- Created with Inkscape (http://www.inkscape.org/) -->

<svg
   xmlns:dc="http://purl.org/dc/elements/1.1/"
   xmlns:cc="http://creativecommons.org/ns#"
   xmlns:rdf="http://www.w3.org/1999/02/22-rdf-syntax-ns#"
   xmlns:svg="http://www.w3.org/2000/svg"
   xmlns="http://www.w3.org/2000/svg"
   xmlns:sodipodi="http://sodipodi.sourceforge.net/DTD/sodipodi-0.dtd"
   xmlns:inkscape="http://www.inkscape.org/namespaces/inkscape"
   width="180"
   height="60"
   id="svg2"
   version="1.1"
   inkscape:version="0.48.3.1 r9886"
   sodipodi:docname="qDukeLogo.svg">
  <defs
     id="defs4" />
  <sodipodi:namedview
     id="base"
     pagecolor="#ffffff"
     bordercolor="#666666"
     borderopacity="1.0"
     inkscape:pageopacity="0.0"
     inkscape:pageshadow="2"
     inkscape:zoom="2.8"
     inkscape:cx="59.528676"
     inkscape:cy="73.181915"
     inkscape:document-units="px"
     inkscape:current-layer="layer1"
     showgrid="false"
     inkscape:window-width="1535"
     inkscape:window-height="876"
     inkscape:window-x="65"
     inkscape:window-y="24"
     inkscape:window-maximized="1" />
  <metadata
     id="metadata7">
    <rdf:RDF>
      <cc:Work
         rdf:about="">
        <dc:format>image/svg+xml</dc:format>
        <dc:type
           rdf:resource="http://purl.org/dc/dcmitype/StillImage" />
        <dc:title></dc:title>
      </cc:Work>
    </rdf:RDF>
  </metadata>
  <g
     inkscape:label="Layer 1"
     inkscape:groupmode="layer"
     id="layer1"
     transform="translate(0,-992.36218)">
    <g
       style="font-size:40px;font-style:normal;font-weight:normal;line-height:125%;letter-spacing:0px;word-spacing:0px;fill:#ffffff;fill-opacity:1;stroke:none;font-family:Sans"
       id="text2985"
       transform="matrix(0.93424257,0,0,0.93424257,17.299823,66.585643)">
      <path
         d="m 26.625687,1042.537 c 1.27985,10e-5 3.853959,0.4105 3.839551,2e-4 0.178575,-0.8349 0.08929,-1.8035 -0.3125,-3.04 3.664522,3.1896 6.858706,4.1102 12.3125,4.96 -5.53542,0.9021 -8.595676,1.8335 -12.3125,4.96 0.446429,-1.1026 0.446433,-2.0713 0.3125,-3.04 0.01182,-0.4103 -2.628,0 -3.942,0 -2.227994,-0.075 -3.697058,-1.7565 -3.737551,-3.8402 l 0,-12 -0.192,0 c -0.640018,0.96 -1.456017,1.696 -2.448,2.208 -0.960015,0.512 -2.240014,0.768 -3.84,0.768 -3.200009,0 -5.568006,-1.008 -7.1040003,-3.024 -1.5360031,-2.048 -2.3040023,-5.2 -2.304,-9.456 -2.3e-6,-4.128 0.9919967,-7.248 2.976,-9.36 1.9839923,-2.112 4.8799903,-3.168 8.6880003,-3.168 1.695984,0 3.279982,0.16 4.752,0.48 1.503979,0.32 2.607978,0.656 3.312,1.008 l -4.49e-4,32.5442 m -9.647551,-12.3842 c 1.631986,0 2.911984,-0.416 3.84,-1.248 0.927983,-0.832 1.583982,-2.112 1.968,-3.84 l 0,-12.288 c -1.184017,-0.608 -2.816016,-0.912 -4.896,-0.912 -2.208011,0 -3.93601,0.752 -5.184,2.256 -1.216007,1.472 -1.824007,3.76 -1.824,6.864 -7e-6,1.344 0.111993,2.592 0.336,3.744 0.223993,1.12 0.575992,2.08 1.056,2.88 0.479992,0.8 1.103991,1.424 1.872,1.872 0.767989,0.448 1.711988,0.672 2.832,0.672"
         style="font-size:48px;font-variant:normal;font-stretch:normal;fill:#ffffff;font-family:PT Sans;-inkscape-font-specification:PT Sans"
         id="path3013"
         inkscape:connector-curvature="0"
         sodipodi:nodetypes="cccccccccccscssscccccccscsccsc" />
    </g>
    <g
       style="font-size:56px;font-style:normal;font-weight:normal;line-height:125%;letter-spacing:0px;word-spacing:0px;fill:#ffffff;fill-opacity:1;stroke:none;font-family:Sans"
       id="text2989"
       transform="matrix(0.93424257,0,0,0.93424257,17.299823,66.585643)">
      <path
         d="m 43.47604,1002.0536 c 0,-0.784 0.112005,-1.792 4.704,-1.792 6.943993,0 17.248,5.096 17.248,16.576 0,11.368 -10.416004,15.008 -14.784,15.008 -3.639996,0 -7.168,-1.736 -7.168,-5.656 l 0,-24.136 m 9.856,31.136 c 9.63199,0 17.36,-6.888 17.36,-15.288 0,-13.496 -9.520012,-19.32002 -21.28,-19.32002 -1.791998,0 -3.360001,0.056 -4.816,0.168 -1.399998,0.056 -2.744001,0.168 -4.144,0.168 l -5.096,0 c -0.671999,0 -2.184,0 -2.184,0.952 0,0.61602 0.392001,0.61602 1.68,0.72802 1.455999,0.112 3.808,0 3.808,1.064 l 0,26.32 c 0,3.248 -1.288001,3.416 -2.52,3.64 -1.679998,0.28 -2.072,0.784 -2.072,1.232 0,0.56 0.728,0.56 1.008,0.56 0.671999,0 1.512001,-0.056 2.408,-0.112 0.895999,-0.056 1.848001,-0.112 2.632,-0.112 l 13.216,0"
         style="font-variant:normal;font-stretch:normal;fill:#ffffff;font-family:Garamond 3 LT Std;-inkscape-font-specification:Garamond 3 LT Std"
         id="path3016"
         inkscape:connector-curvature="0" />
      <path
         d="m 83.55279,1034.1976 c 4.535996,0 6.944001,-3.304 7.84,-3.304 0.28,0 0.392,0.224 0.392,0.672 l 0,1.288 c 0,0.504 10e-7,0.896 0.448,0.896 0.504,0 2.800004,-0.504 6.72,-1.12 0.839999,-0.112 1.12,-0.224 1.12,-0.672 0,-0.56 -0.728002,-0.56 -2.912,-0.56 -0.503999,0 -1.456,-0.168 -1.456,-1.344 0,-5.656 0.224,-11.312 0.224,-16.968 0,-1.008 -0.784,-1.176 -1.176,-1.176 -1.119999,0 -2.184001,0.112 -3.304,0.112 -0.951999,0 -1.904001,-0.112 -2.856,-0.112 -0.615999,0 -1.232,0.112 -1.232,0.448 0,0.448 1.176001,0.784 1.624,0.896 2.631997,0.672 2.912,0.672 2.912,1.344 0,3.976 -0.112,8.008 -0.112,11.984 -0.056,2.296 -0.504006,4.928 -6.72,4.928 -2.743997,0 -4.424,-1.288 -4.424,-3.584 0,-4.984 0.112,-9.968 0.112,-14.952 0,-0.784 -0.112001,-1.064 -0.84,-1.064 -0.839999,0 -1.680001,0.112 -2.464,0.112 -0.839999,0 -1.624001,-0.112 -2.408,-0.112 -0.783999,0 -1.4,0 -1.4,0.504 0,0.392 0.336001,0.504 1.68,0.84 0.671999,0.168 1.624,0.28 1.624,1.064 0,3.304 -0.112,8.512 -0.112,11.928 0,4.76 1.456005,7.952 6.72,7.952"
         style="font-variant:normal;font-stretch:normal;fill:#ffffff;font-family:Garamond 3 LT Std;-inkscape-font-specification:Garamond 3 LT Std"
         id="path3018"
         inkscape:connector-curvature="0" />
      <path
         d="m 105.33679,1029.4376 c 0,2.352 -1.176,2.184 -2.744,2.632 -0.56,0.168 -1.008,0.28 -1.008,0.784 0,0.504 1.008,0.56 1.344,0.56 0.952,0 2.688,-0.224 4.032,-0.224 1.232,0 2.408,0.224 3.752,0.224 0.56,0 1.288,-0.112 1.288,-0.56 0,-0.504 -0.728,-0.504 -1.624,-0.784 -0.504,-0.168 -1.232,-0.56 -1.232,-1.792 l 0,-7.952 c 0,-0.224 0.168,-0.28 0.392,-0.28 0.112,0 0.336,0.168 0.504,0.336 l 8.456,8.008 c 0.336,0.336 0.616,0.616 0.616,0.896 0,0.392 -0.504,0.728 -1.064,0.784 -0.952,0.112 -1.624,0.28 -1.624,0.784 0,0.504 0.504,0.56 1.68,0.56 1.344,0 2.688,-0.224 4.144,-0.224 1.68,0 3.136,0.224 4.312,0.224 0.896,0 1.456,-0.28 1.456,-0.56 0,-0.784 -2.128,-0.616 -4.424,-2.688 l -9.688,-8.792 c -0.168,-0.168 -0.448,-0.392 -0.448,-0.784 0,-0.616 9.184,-5.936 10.808,-6.664 0.784,-0.336 2.744,-0.728 2.744,-1.344 0,-0.56 -0.56,-0.672 -1.064,-0.672 -1.12,0 -2.8,0.112 -4.2,0.112 -1.456,0 -3.136,-0.112 -4.312,-0.112 -0.336,0 -0.784,0.28 -0.784,0.56 0,0.84 2.128,0.84 2.128,2.296 0,1.008 -8.568,6.048 -9.128,6.048 -0.392,0 -0.504,-0.28 -0.504,-0.896 l 0,-23.01602 c 0,-0.84 -0.336,-1.008 -0.616,-1.008 -0.336,0 -0.672,0 -0.952,0.112 l -3.808,1.456 c -0.784,0.27999 -1.176,0.392 -1.176,0.784 0,1.06399 2.744,0.112 2.744,3.08002 l 0,28.112"
         style="font-variant:normal;font-stretch:normal;fill:#ffffff;font-family:Garamond 3 LT Std;-inkscape-font-specification:Garamond 3 LT Std"
         id="path3020"
         inkscape:connector-curvature="0" />
      <path
         d="m 147.61679,1020.1976 c 0.952,0 1.12,-0.28 1.12,-1.288 0,-2.408 -2.18401,-7.896 -8.624,-7.896 -6.94399,0 -10.192,6.552 -10.192,11.816 0,7 3.52801,11.368 9.688,11.368 5.82399,0 8.176,-4.088 8.176,-4.48 0,-0.28 -0.224,-0.448 -0.504,-0.448 -0.896,0 -1.008,2.24 -5.32,2.24 -6.83199,0 -8.12,-4.648 -8.12,-9.352 0,-0.896 0,-1.624 0.112,-1.96 l 13.664,0 m -8.288,-1.68 c -4.76,0 -4.872,-0.112 -4.872,-0.504 0,-1.736 2.408,-5.656 6.44,-5.656 2.352,0 4.144,1.512 4.144,3.416 0,2.016 -0.784,2.744 -5.712,2.744"
         style="font-variant:normal;font-stretch:normal;fill:#ffffff;font-family:Garamond 3 LT Std;-inkscape-font-specification:Garamond 3 LT Std"
         id="path3022"
         inkscape:connector-curvature="0" />
    </g>
    <g
       style="font-size:12.48709202px;font-style:normal;font-weight:normal;line-height:125%;letter-spacing:1.57529473px;word-spacing:0px;fill:#ffffff;fill-opacity:1;stroke:none;font-family:Sans"
       id="text3024"
       transform="matrix(0.97261662,0,0,0.97261662,2.4645037,27.995756)">
      <path
         d="m 61.783152,1037.146 0.89907,0 0,2.9719 0.03746,0 c 0.341312,-0.4162 0.795009,-0.6243 1.361093,-0.6243 0.641,0 1.119672,0.2539 1.436015,0.7617 0.32466,0.5078 0.486992,1.3111 0.486997,2.41 -5e-6,1.1238 -0.216448,1.9605 -0.649329,2.5099 -0.424565,0.5494 -1.028107,0.8241 -1.810628,0.8241 -0.38294,0 -0.732578,-0.042 -1.048916,-0.1248 -0.316341,-0.092 -0.553595,-0.1957 -0.711764,-0.3122 l 0,-8.4163 m 0.89907,7.8294 c 0.116545,0.067 0.258065,0.1207 0.424562,0.1623 0.174817,0.033 0.35796,0.05 0.549432,0.05 0.432882,0 0.774196,-0.204 1.023941,-0.6119 0.258063,-0.4162 0.387096,-1.0531 0.3871,-1.9105 -4e-6,-0.358 -0.02498,-0.6785 -0.07492,-0.9615 -0.04163,-0.2914 -0.112387,-0.5411 -0.21228,-0.7492 -0.09158,-0.2082 -0.216447,-0.3663 -0.374613,-0.4745 -0.149848,-0.1166 -0.332992,-0.1749 -0.549432,-0.1749 -0.299693,0 -0.549434,0.092 -0.749225,0.2747 -0.191471,0.1749 -0.332991,0.4163 -0.424562,0.7243 l 0,3.6712"
         style="font-weight:normal;text-align:start;line-height:125%;writing-mode:lr-tb;text-anchor:start;fill:#ffffff;font-family:PT Sans Narrow;-inkscape-font-specification:PT Sans Narrow Condensed"
         id="path3062"
         inkscape:connector-curvature="0" />
      <path
         d="m 70.199227,1043.6767 0.262229,1.2113 0.06244,0 0.187307,-1.2113 0.949019,-4.0333 0.911558,0 -1.485964,5.6067 c -0.11655,0.4496 -0.233096,0.87 -0.349639,1.2612 -0.116549,0.3913 -0.245582,0.7284 -0.3871,1.0115 -0.133198,0.2913 -0.287205,0.5161 -0.462022,0.6743 -0.166497,0.1665 -0.36629,0.2497 -0.599381,0.2497 -0.233093,0 -0.437049,-0.037 -0.611867,-0.1124 l 0.149845,-0.8491 c 0.116545,0.042 0.233091,0.05 0.349638,0.025 0.116545,-0.025 0.224767,-0.096 0.324665,-0.2123 0.10822,-0.1165 0.203954,-0.2914 0.287203,-0.5245 0.09157,-0.2247 0.170655,-0.5202 0.237255,-0.8865 l -2.022909,-6.2436 1.023941,0 1.173787,4.0333"
         style="font-weight:normal;text-align:start;line-height:125%;writing-mode:lr-tb;text-anchor:start;fill:#ffffff;font-family:PT Sans Narrow;-inkscape-font-specification:PT Sans Narrow Condensed"
         id="path3064"
         inkscape:connector-curvature="0" />
      <path
         d="m 83.773222,1038.5945 -2.06037,0 0,7.2925 -1.573374,0 0,-7.2925 -2.072857,0 0,-1.4485 5.706601,0 0,1.4485"
         style="font-variant:normal;font-weight:bold;font-stretch:condensed;fill:#ffffff;font-family:PT Sans Narrow;-inkscape-font-specification:PT Sans Narrow Bold Condensed"
         id="path3066"
         inkscape:connector-curvature="0" />
      <path
         d="m 89.077864,1045.887 0,-3.7711 c -3e-6,-0.4496 -0.05411,-0.7742 -0.162332,-0.974 -0.0999,-0.1998 -0.287206,-0.2997 -0.561919,-0.2997 -0.199796,0 -0.38294,0.071 -0.549432,0.2123 -0.166497,0.1415 -0.278881,0.3205 -0.337152,0.5369 l 0,4.2956 -1.485964,0 0,-8.741 1.485964,0 0,3.0593 0.03746,0 c 0.166492,-0.2164 0.366285,-0.3912 0.59938,-0.5244 0.241414,-0.1332 0.541104,-0.1998 0.899071,-0.1998 0.258062,0 0.48283,0.038 0.674303,0.1124 0.191464,0.075 0.353796,0.1998 0.486996,0.3746 0.133191,0.1748 0.233088,0.4121 0.29969,0.7117 0.06659,0.2914 0.09989,0.6619 0.0999,1.1114 l 0,4.0958 -1.485964,0"
         style="font-variant:normal;font-weight:bold;font-stretch:condensed;fill:#ffffff;font-family:PT Sans Narrow;-inkscape-font-specification:PT Sans Narrow Bold Condensed"
         id="path3068"
         inkscape:connector-curvature="0" />
      <path
         d="m 97.386433,1045.4249 c -0.208123,0.1832 -0.491163,0.333 -0.849122,0.4496 -0.357967,0.1165 -0.73258,0.1748 -1.123839,0.1748 -0.432888,0 -0.8075,-0.075 -1.123838,-0.2248 -0.308016,-0.1498 -0.56192,-0.3663 -0.761712,-0.6493 -0.199795,-0.283 -0.34964,-0.6244 -0.449536,-1.0239 -0.09157,-0.408 -0.137358,-0.87 -0.137358,-1.3861 0,-1.1238 0.220605,-1.9522 0.661816,-2.4849 0.449534,-0.5411 1.069726,-0.8117 1.860577,-0.8117 0.266388,0 0.524454,0.042 0.7742,0.1249 0.249738,0.075 0.470343,0.2081 0.661815,0.3996 0.199789,0.1831 0.357959,0.4328 0.47451,0.7492 0.124866,0.308 0.187301,0.6993 0.187306,1.1738 -5e-6,0.1831 -0.01249,0.3787 -0.03746,0.5869 -0.01665,0.2081 -0.04579,0.4328 -0.08741,0.6743 l -3.034363,0 c 0.01665,0.5161 0.124869,0.9115 0.324664,1.1862 0.199792,0.2748 0.520293,0.4121 0.961506,0.4121 0.266388,0 0.507805,-0.042 0.724252,-0.1249 0.224763,-0.083 0.39542,-0.1706 0.511971,-0.2622 l 0.462022,1.0364 m -1.947986,-4.6826 c -0.316343,0 -0.553597,0.129 -0.711765,0.3871 -0.158171,0.2497 -0.249743,0.6035 -0.274716,1.0614 l 1.723219,0 c 0.02497,-0.4745 -0.02498,-0.8325 -0.149845,-1.0739 -0.124874,-0.2497 -0.320505,-0.3746 -0.586893,-0.3746"
         style="font-variant:normal;font-weight:bold;font-stretch:condensed;fill:#ffffff;font-family:PT Sans Narrow;-inkscape-font-specification:PT Sans Narrow Bold Condensed"
         id="path3070"
         inkscape:connector-curvature="0" />
      <path
         d="m 109.05439,1045.5373 c -0.21645,0.1832 -0.50781,0.3164 -0.8741,0.3996 -0.35796,0.083 -0.71593,0.1249 -1.07389,0.1249 -0.44953,0 -0.86993,-0.075 -1.26119,-0.2248 -0.38294,-0.1582 -0.72009,-0.4162 -1.01146,-0.7742 -0.29136,-0.3579 -0.52029,-0.8283 -0.68679,-1.411 -0.16649,-0.5828 -0.24974,-1.2987 -0.24974,-2.1478 0,-0.8824 0.0916,-1.615 0.27472,-2.1977 0.19146,-0.5828 0.43704,-1.0448 0.73674,-1.3861 0.30801,-0.3496 0.65765,-0.5952 1.04891,-0.7367 0.39126,-0.1416 0.78668,-0.2123 1.18627,-0.2123 0.40791,0 0.76171,0.033 1.06141,0.1 0.30801,0.067 0.55775,0.1415 0.74922,0.2247 l -0.31217,1.3861 c -0.15818,-0.083 -0.34549,-0.1457 -0.56192,-0.1873 -0.20813,-0.05 -0.45787,-0.075 -0.74923,-0.075 -0.57441,0 -1.01562,0.2497 -1.32363,0.7492 -0.30802,0.4995 -0.46202,1.282 -0.46202,2.3476 0,0.4578 0.0333,0.8782 0.0999,1.2612 0.0749,0.3746 0.18731,0.6993 0.33716,0.974 0.15816,0.2747 0.35379,0.487 0.58689,0.6368 0.24141,0.1499 0.52862,0.2248 0.86161,0.2248 0.29136,0 0.5411,-0.037 0.74922,-0.1124 0.20812,-0.083 0.39542,-0.179 0.56192,-0.2872 l 0.31218,1.3236"
         style="font-variant:normal;font-weight:bold;font-stretch:condensed;fill:#ffffff;font-family:PT Sans Narrow;-inkscape-font-specification:PT Sans Narrow Bold Condensed"
         id="path3072"
         inkscape:connector-curvature="0" />
      <path
         d="m 114.45113,1045.887 0,-3.7711 c -1e-5,-0.4496 -0.0541,-0.7742 -0.16234,-0.974 -0.0999,-0.1998 -0.2872,-0.2997 -0.56191,-0.2997 -0.1998,0 -0.38294,0.071 -0.54944,0.2123 -0.16649,0.1415 -0.27888,0.3205 -0.33715,0.5369 l 0,4.2956 -1.48596,0 0,-8.741 1.48596,0 0,3.0593 0.0375,0 c 0.1665,-0.2164 0.36629,-0.3912 0.59938,-0.5244 0.24142,-0.1332 0.54111,-0.1998 0.89907,-0.1998 0.25807,0 0.48283,0.038 0.67431,0.1124 0.19146,0.075 0.35379,0.1998 0.48699,0.3746 0.13319,0.1748 0.23309,0.4121 0.29969,0.7117 0.0666,0.2914 0.0999,0.6619 0.0999,1.1114 l 0,4.0958 -1.48596,0"
         style="font-variant:normal;font-weight:bold;font-stretch:condensed;fill:#ffffff;font-family:PT Sans Narrow;-inkscape-font-specification:PT Sans Narrow Bold Condensed"
         id="path3074"
         inkscape:connector-curvature="0" />
      <path
         d="m 121.48601,1041.1169 c -0.19979,-0.075 -0.38294,-0.1124 -0.54943,-0.1124 -0.22477,0 -0.4204,0.062 -0.58689,0.1873 -0.15818,0.1249 -0.2664,0.2997 -0.32467,0.5245 l 0,4.1707 -1.48596,0 0,-6.2436 1.13632,0 0.17482,0.7492 0.0499,0 c 0.10822,-0.2747 0.26223,-0.4869 0.46202,-0.6368 0.20812,-0.1582 0.44537,-0.2372 0.71177,-0.2373 0.19979,1e-4 0.39542,0.042 0.58689,0.1249 l -0.17482,1.4735"
         style="font-variant:normal;font-weight:bold;font-stretch:condensed;fill:#ffffff;font-family:PT Sans Narrow;-inkscape-font-specification:PT Sans Narrow Bold Condensed"
         id="path3076"
         inkscape:connector-curvature="0" />
      <path
         d="m 123.54791,1042.7652 c 0,-1.1072 0.21644,-1.9313 0.64933,-2.4725 0.43288,-0.5411 1.03643,-0.8116 1.81063,-0.8116 0.83247,0 1.45266,0.2747 1.86057,0.8241 0.40791,0.5495 0.61187,1.3695 0.61187,2.46 0,1.1155 -0.21645,1.9438 -0.64933,2.4849 -0.43289,0.5328 -1.04059,0.7992 -1.82311,0.7992 -1.63998,0 -2.45996,-1.0947 -2.45996,-3.2841 m 1.53591,0 c 0,0.6243 0.0708,1.1072 0.21228,1.4485 0.14152,0.3413 0.37878,0.512 0.71177,0.512 0.31633,0 0.54943,-0.1457 0.69927,-0.4371 0.15817,-0.2997 0.23726,-0.8075 0.23726,-1.5234 0,-0.641 -0.0708,-1.128 -0.21228,-1.461 -0.14152,-0.333 -0.38294,-0.4995 -0.72425,-0.4995 -0.29137,0 -0.5203,0.1499 -0.68679,0.4496 -0.15817,0.2913 -0.23726,0.795 -0.23726,1.5109"
         style="font-variant:normal;font-weight:bold;font-stretch:condensed;fill:#ffffff;font-family:PT Sans Narrow;-inkscape-font-specification:PT Sans Narrow Bold Condensed"
         id="path3078"
         inkscape:connector-curvature="0" />
      <path
         d="m 134.00543,1045.887 0,-3.7961 c 0,-0.4579 -0.0541,-0.7784 -0.16233,-0.9615 -0.10823,-0.1832 -0.29137,-0.2747 -0.54944,-0.2747 -0.21644,0 -0.40375,0.067 -0.56191,0.1998 -0.15818,0.1332 -0.27056,0.2997 -0.33716,0.4994 l 0,4.3331 -1.48596,0 0,-6.2436 1.18627,0 0.17482,0.7243 0.0375,0 c 0.14985,-0.2414 0.3538,-0.4454 0.61187,-0.6119 0.25807,-0.1748 0.59522,-0.2622 1.01146,-0.2622 0.24973,0 0.47034,0.037 0.66181,0.1124 0.19979,0.075 0.36629,0.1998 0.49949,0.3746 0.13319,0.1665 0.23308,0.3954 0.29969,0.6868 0.0666,0.283 0.0999,0.6368 0.0999,1.0614 l 0,4.1582 -1.48596,0"
         style="font-variant:normal;font-weight:bold;font-stretch:condensed;fill:#ffffff;font-family:PT Sans Narrow;-inkscape-font-specification:PT Sans Narrow Bold Condensed"
         id="path3080"
         inkscape:connector-curvature="0" />
      <path
         d="m 138.21823,1039.6434 1.48597,0 0,6.2436 -1.48597,0 0,-6.2436 m -0.17482,-1.7607 c 0,-0.2497 0.0791,-0.4537 0.23726,-0.6118 0.15817,-0.1665 0.38293,-0.2498 0.6743,-0.2498 0.29136,0 0.52446,0.079 0.69928,0.2373 0.17481,0.1582 0.26222,0.3663 0.26223,0.6243 -1e-5,0.2581 -0.0874,0.4621 -0.26223,0.6119 -0.17482,0.1499 -0.40792,0.2248 -0.69928,0.2248 -0.29137,0 -0.51613,-0.075 -0.6743,-0.2248 -0.15817,-0.1582 -0.23726,-0.3621 -0.23726,-0.6119"
         style="font-variant:normal;font-weight:bold;font-stretch:condensed;fill:#ffffff;font-family:PT Sans Narrow;-inkscape-font-specification:PT Sans Narrow Bold Condensed"
         id="path3082"
         inkscape:connector-curvature="0" />
      <path
         d="m 146.15707,1045.5498 c -0.20813,0.1665 -0.45787,0.2914 -0.74923,0.3746 -0.29137,0.083 -0.58273,0.1249 -0.8741,0.1249 -0.42456,0 -0.78252,-0.075 -1.07389,-0.2248 -0.28304,-0.1581 -0.51613,-0.3787 -0.69927,-0.6618 -0.18315,-0.2914 -0.31634,-0.6368 -0.39959,-1.0364 -0.0749,-0.4079 -0.11238,-0.8616 -0.11238,-1.3611 0,-1.0905 0.19563,-1.9105 0.58689,-2.46 0.39126,-0.5494 0.96567,-0.8241 1.72322,-0.8241 0.37461,0 0.67846,0.033 0.91156,0.1 0.24141,0.067 0.45369,0.1498 0.63684,0.2497 l -0.34964,1.2362 c -0.14985,-0.075 -0.29553,-0.129 -0.43705,-0.1623 -0.1332,-0.042 -0.29553,-0.062 -0.487,-0.062 -0.34964,0 -0.61187,0.154 -0.78668,0.462 -0.17482,0.2997 -0.26223,0.7867 -0.26223,1.461 0,0.5661 0.0874,1.0281 0.26223,1.3861 0.18314,0.3579 0.47034,0.5369 0.86161,0.5369 0.20811,0 0.38293,-0.025 0.52445,-0.075 0.14985,-0.058 0.2872,-0.1291 0.41208,-0.2123 l 0.31218,1.1488"
         style="font-variant:normal;font-weight:bold;font-stretch:condensed;fill:#ffffff;font-family:PT Sans Narrow;-inkscape-font-specification:PT Sans Narrow Bold Condensed"
         id="path3084"
         inkscape:connector-curvature="0" />
      <path
         d="m 149.92521,1043.8641 c 0,0.2913 0.0291,0.4994 0.0874,0.6243 0.0583,0.1249 0.15401,0.1873 0.28721,0.1873 0.0749,0 0.14984,-0.01 0.22476,-0.025 0.0833,-0.017 0.17482,-0.046 0.27472,-0.087 l 0.13736,1.1988 c -0.0999,0.067 -0.27056,0.129 -0.51197,0.1873 -0.24142,0.058 -0.487,0.087 -0.73674,0.087 -0.41624,0 -0.72842,-0.1041 -0.93653,-0.3122 -0.20812,-0.2081 -0.31218,-0.5619 -0.31218,-1.0614 l 0,-7.5172 1.48596,0 0,6.7181"
         style="font-variant:normal;font-weight:bold;font-stretch:condensed;fill:#ffffff;font-family:PT Sans Narrow;-inkscape-font-specification:PT Sans Narrow Bold Condensed"
         id="path3086"
         inkscape:connector-curvature="0" />
      <path
         d="m 157.23442,1045.4249 c -0.20812,0.1832 -0.49116,0.333 -0.84912,0.4496 -0.35797,0.1165 -0.73258,0.1748 -1.12384,0.1748 -0.43289,0 -0.8075,-0.075 -1.12384,-0.2248 -0.30801,-0.1498 -0.56192,-0.3663 -0.76171,-0.6493 -0.19979,-0.283 -0.34964,-0.6244 -0.44953,-1.0239 -0.0916,-0.408 -0.13736,-0.87 -0.13736,-1.3861 0,-1.1238 0.2206,-1.9522 0.66181,-2.4849 0.44954,-0.5411 1.06973,-0.8117 1.86058,-0.8117 0.26639,0 0.52446,0.042 0.7742,0.1249 0.24974,0.075 0.47034,0.2081 0.66182,0.3996 0.19979,0.1831 0.35796,0.4328 0.47451,0.7492 0.12486,0.308 0.1873,0.6993 0.1873,1.1738 0,0.1831 -0.0125,0.3787 -0.0375,0.5869 -0.0166,0.2081 -0.0458,0.4328 -0.0874,0.6743 l -3.03436,0 c 0.0166,0.5161 0.12487,0.9115 0.32466,1.1862 0.19979,0.2748 0.5203,0.4121 0.96151,0.4121 0.26639,0 0.5078,-0.042 0.72425,-0.1249 0.22476,-0.083 0.39542,-0.1706 0.51197,-0.2622 l 0.46202,1.0364 m -1.94798,-4.6826 c -0.31635,0 -0.5536,0.129 -0.71177,0.3871 -0.15817,0.2497 -0.24974,0.6035 -0.27471,1.0614 l 1.72322,0 c 0.025,-0.4745 -0.025,-0.8325 -0.14985,-1.0739 -0.12487,-0.2497 -0.32051,-0.3746 -0.58689,-0.3746"
         style="font-variant:normal;font-weight:bold;font-stretch:condensed;fill:#ffffff;font-family:PT Sans Narrow;-inkscape-font-specification:PT Sans Narrow Bold Condensed"
         id="path3088"
         inkscape:connector-curvature="0" />
    </g>
  </g>
</svg>
